<svg xmlns="http://www.w3.org/2000/svg" version="1.1" xmlns:xlink="http://www.w3.org/1999/xlink" viewBox="0 0 200 200"><rect width="200" height="200" fill="url('#gradient')"></rect><defs><linearGradient id="gradient" gradientTransform="rotate(45 0.5 0.5)"><stop offset="0%" stop-color="#b0a13e"></stop><stop offset="100%" stop-color="#dbc384"></stop></linearGradient></defs><g><g fill="#eb9f2e" transform="matrix(1.8945420906567993,0,0,1.8945420906567993,9.035868670078038,114.0219553061705)" stroke="#62655a" stroke-width="0.2"><path d="M10.75-14.22L10.75-12.46L5.44 0L1.96 0L7.29-11.68L0.51-11.68L0.51-14.22L10.75-14.22ZM26.67-14.22L28.65-5.30L30.28-14.22L33.68-14.22L30.66 0L27.11 0L25.21-8.11L23.34 0L19.79 0L16.77-14.22L20.18-14.22L21.81-5.30L23.76-14.22L26.67-14.22ZM34.16-4.82L34.15-5.38Q34.15-6.96 34.77-8.20Q35.38-9.43 36.53-10.10Q37.69-10.76 39.24-10.76L39.24-10.76Q41.61-10.76 42.98-9.29Q44.35-7.82 44.35-5.29L44.35-5.29L44.35-5.18Q44.35-2.71 42.97-1.25Q41.60 0.20 39.26 0.20L39.26 0.20Q37.00 0.20 35.63-1.16Q34.27-2.51 34.16-4.82L34.16-4.82ZM37.45-5.77L37.44-5.18Q37.44-3.71 37.90-3.03Q38.36-2.34 39.26-2.34L39.26-2.34Q41.02-2.34 41.05-5.05L41.05-5.05L41.05-5.38Q41.05-8.22 39.24-8.22L39.24-8.22Q37.59-8.22 37.45-5.77L37.45-5.77ZM45.73-10.57L48.82-10.57L48.93-9.33Q50.02-10.76 51.94-10.76L51.94-10.76Q53.59-10.76 54.41-9.78Q55.22-8.79 55.25-6.81L55.25-6.81L55.25 0L51.95 0L51.95-6.67Q51.95-7.47 51.63-7.85Q51.31-8.22 50.46-8.22L50.46-8.22Q49.49-8.22 49.02-7.46L49.02-7.46L49.02 0L45.73 0L45.73-10.57ZM56.66-5.36L56.66-5.36Q56.66-7.87 57.74-9.32Q58.83-10.76 60.77-10.76L60.77-10.76Q62.19-10.76 63.15-9.65L63.15-9.65L63.15-15L66.46-15L66.46 0L63.50 0L63.33-1.13Q62.31 0.20 60.75 0.20L60.75 0.20Q58.87 0.20 57.76-1.25Q56.66-2.70 56.66-5.36ZM59.96-5.76L59.95-5.16Q59.95-2.34 61.59-2.34L61.59-2.34Q62.69-2.34 63.15-3.26L63.15-3.26L63.15-7.29Q62.71-8.22 61.61-8.22L61.61-8.22Q60.09-8.22 59.96-5.76L59.96-5.76ZM73.44 0.20L73.44 0.20Q71.01 0.20 69.50-1.25Q68.00-2.71 68.00-5.03L68.00-5.03L68.00-5.30Q68.00-6.92 68.60-8.16Q69.20-9.40 70.35-10.08Q71.50-10.76 73.09-10.76L73.09-10.76Q75.31-10.76 76.60-9.38Q77.89-8.00 77.89-5.53L77.89-5.53L77.89-4.25L71.35-4.25Q71.52-3.36 72.12-2.85Q72.71-2.34 73.66-2.34L73.66-2.34Q75.22-2.34 76.10-3.44L76.10-3.44L77.61-1.66Q76.99-0.81 75.86-0.31Q74.74 0.20 73.44 0.20ZM73.07-8.22L73.07-8.22Q71.62-8.22 71.35-6.31L71.35-6.31L74.67-6.31L74.67-6.56Q74.69-7.35 74.27-7.79Q73.85-8.22 73.07-8.22ZM85.66-10.64L85.61-7.59L84.52-7.67Q82.97-7.67 82.53-6.69L82.53-6.69L82.53 0L79.24 0L79.24-10.57L82.32-10.57L82.43-9.21Q83.26-10.76 84.75-10.76L84.75-10.76Q85.27-10.76 85.66-10.64L85.66-10.64ZM92.32-2.97L92.32-2.97Q92.32-3.39 91.88-3.64Q91.45-3.90 90.21-4.17Q88.98-4.44 88.18-4.89Q87.38-5.33 86.96-5.97Q86.54-6.60 86.54-7.42L86.54-7.42Q86.54-8.88 87.74-9.82Q88.95-10.76 90.89-10.76L90.89-10.76Q92.98-10.76 94.25-9.81Q95.52-8.87 95.52-7.32L95.52-7.32L92.22-7.32Q92.22-8.59 90.88-8.59L90.88-8.59Q90.36-8.59 90.01-8.31Q89.66-8.02 89.66-7.59L89.66-7.59Q89.66-7.15 90.09-6.88Q90.52-6.60 91.46-6.43Q92.40-6.25 93.12-6.01L93.12-6.01Q95.50-5.19 95.50-3.07L95.50-3.07Q95.50-1.62 94.21-0.71Q92.93 0.20 90.89 0.20L90.89 0.20Q89.53 0.20 88.47-0.29Q87.40-0.78 86.81-1.62Q86.21-2.46 86.21-3.39L86.21-3.39L89.29-3.39Q89.31-2.66 89.78-2.32Q90.24-1.98 90.98-1.98L90.98-1.98Q91.65-1.98 91.99-2.26Q92.32-2.53 92.32-2.97Z"></path></g></g></svg>